<svg width="30" height="33" viewBox="0 0 30 33" fill="none" xmlns="http://www.w3.org/2000/svg">
<path d="M21.1909 8.51819C21.1909 4.91835 18.4103 2.00006 14.9803 2.00006C13.3285 1.99277 11.7421 2.67625 10.5716 3.89942C9.4012 5.12259 8.74327 6.78469 8.74327 8.51819M20.9936 31H8.99328C4.58527 31 1.20361 29.3291 2.16416 22.6038L3.28261 13.4896C3.87473 10.1339 5.91425 8.84961 7.70377 8.84961H22.3357C24.1515 8.84961 26.0726 10.2306 26.7569 13.4896L27.8753 22.6038C28.6911 28.5695 25.4016 31 20.9936 31Z" stroke="#939393" stroke-width="2.1" stroke-linecap="round" stroke-linejoin="round"/>
<path d="M19.243 15.3127H19.1783" stroke="#939393" stroke-width="2.1" stroke-linecap="round" stroke-linejoin="round"/>
<path d="M10.8621 15.3127H10.796" stroke="#939393" stroke-width="2.1" stroke-linecap="round" stroke-linejoin="round"/>
</svg>
