<svg width="41" height="41" viewBox="0 0 41 41" fill="none" xmlns="http://www.w3.org/2000/svg">
<path d="M37.7239 10.5346C37.6983 10.3733 37.6121 10.2279 37.483 10.1281C37.3538 10.0282 37.1913 9.98147 37.0288 9.99736C36.2904 10.0686 35.6077 10.4214 35.1225 10.9825C34.6373 11.5437 34.3867 12.2701 34.4228 13.0111L34.5382 17.7307C33.9177 17.7924 33.3237 18.0132 32.8135 18.3716C32.3033 18.7301 31.8942 19.2141 31.6258 19.7769L29.9012 23.3981C29.6329 23.9596 29.2417 24.4536 28.7567 24.8434L28.3982 25.1309C27.4995 25.8481 26.7834 26.7679 26.3085 27.815C25.8336 28.8622 25.6135 30.0069 25.6661 31.1555L24.9615 30.82C24.8855 30.7838 24.8032 30.763 24.7191 30.7586C24.6351 30.7542 24.5511 30.7665 24.4718 30.7946C24.3925 30.8227 24.3195 30.8662 24.257 30.9225C24.1945 30.9789 24.1438 31.047 24.1076 31.1229L22.2165 35.0938C22.1434 35.2472 22.1343 35.4233 22.1911 35.5835C22.2479 35.7436 22.3659 35.8746 22.5193 35.9476L31.2332 40.0977C31.3091 40.1339 31.3915 40.1548 31.4755 40.1592C31.5596 40.1636 31.6437 40.1513 31.723 40.1232C31.8023 40.0951 31.8753 40.0516 31.9378 39.9953C32.0003 39.9389 32.0511 39.8708 32.0873 39.7948L33.9784 35.8239C34.0146 35.748 34.0355 35.6656 34.0398 35.5816C34.0442 35.4976 34.032 35.4135 34.0038 35.3343C33.9757 35.255 33.9322 35.182 33.8759 35.1195C33.8196 35.057 33.7515 35.0062 33.6756 34.97L33.4433 34.8596L33.2085 33.5214C33.1796 33.0458 33.3327 32.5771 33.6369 32.2103L38.1494 26.7497C38.1585 26.7387 38.1672 26.7273 38.1755 26.7158C39.1058 25.4171 39.5963 23.8549 39.5753 22.2576C39.5748 22.2272 39.5721 22.197 39.5673 22.1671L37.7239 10.5346ZM31.2059 38.6655L23.6489 35.0662L24.9892 32.252L32.5462 35.8512L31.2059 38.6655ZM37.1477 25.9504L32.6492 31.3942C32.1272 32.0235 31.8703 32.8311 31.9328 33.6464C31.9344 33.6675 31.9371 33.6885 31.9408 33.7094L32.024 34.1836L27.0183 31.7994C26.8455 30.7459 26.9565 29.6653 27.3399 28.6689C27.7233 27.6726 28.3653 26.7963 29.1998 26.1305L29.5583 25.8431C30.1938 25.3322 30.7064 24.6849 31.058 23.9491L32.7826 20.3278C33.0019 19.8681 33.3649 19.4923 33.8168 19.2572C34.2686 19.0221 34.7847 18.9406 35.287 19.025L32.7655 24.3197C32.7288 24.3958 32.7074 24.4783 32.7027 24.5626C32.698 24.6469 32.71 24.7312 32.738 24.8109C32.766 24.8905 32.8095 24.9638 32.8659 25.0266C32.9224 25.0894 32.9906 25.1404 33.0669 25.1767C33.1431 25.213 33.2257 25.2339 33.31 25.2382C33.3943 25.2424 33.4787 25.23 33.5582 25.2015C33.6376 25.1731 33.7107 25.1292 33.7732 25.0724C33.8357 25.0157 33.8863 24.9471 33.9222 24.8707L36.757 18.9182C36.83 18.7648 36.8391 18.5887 36.7823 18.4286C36.7255 18.2685 36.6074 18.1375 36.454 18.0644C36.251 17.968 36.0395 17.8906 35.8221 17.8333L35.7034 12.9726C35.7034 12.9671 35.7034 12.9615 35.7027 12.9559C35.6867 12.6472 35.7601 12.3404 35.914 12.0723C36.0679 11.8042 36.2959 11.5862 36.5706 11.4445L38.2949 22.3221C38.3024 23.6218 37.9013 24.8911 37.1482 25.9504H37.1477ZM16.8921 31.1229C16.856 31.047 16.8052 30.9789 16.7427 30.9225C16.6802 30.8662 16.6072 30.8227 16.5279 30.7946C16.4487 30.7665 16.3646 30.7542 16.2806 30.7586C16.1966 30.763 16.1142 30.7838 16.0383 30.82L15.3336 31.1555C15.3862 30.0069 15.1661 28.8622 14.6912 27.815C14.2163 26.7678 13.5002 25.848 12.6015 25.1308L12.243 24.8434C11.7581 24.4535 11.367 23.9596 11.0988 23.3981L9.37416 19.7769C9.10574 19.2141 8.69667 18.7301 8.18648 18.3716C7.6763 18.0132 7.08226 17.7924 6.4618 17.7307L6.57712 13.0111C6.61324 12.2701 6.3627 11.5437 5.87746 10.9825C5.39223 10.4214 4.70956 10.0686 3.97113 9.99736C3.80863 9.98147 3.64619 10.0282 3.517 10.1281C3.38781 10.2279 3.30163 10.3733 3.27605 10.5346L1.43218 22.1671C1.42739 22.197 1.42471 22.2272 1.42417 22.2576C1.40321 23.8549 1.8937 25.4171 2.82393 26.7158C2.83226 26.7274 2.84096 26.7387 2.85004 26.7497L7.3626 32.2103C7.66677 32.5771 7.81992 33.0458 7.79094 33.5214L7.55631 34.8596L7.32408 34.97C7.24813 35.0062 7.18005 35.057 7.12372 35.1195C7.0674 35.182 7.02393 35.255 6.99581 35.3343C6.96769 35.4135 6.95546 35.4976 6.95982 35.5816C6.96418 35.6656 6.98505 35.748 7.02123 35.8239L8.91267 39.7948C8.94885 39.8708 8.99964 39.9389 9.06213 39.9952C9.12462 40.0515 9.1976 40.095 9.27689 40.1231C9.35618 40.1512 9.44023 40.1635 9.52424 40.1591C9.60826 40.1547 9.69059 40.1339 9.76655 40.0977L18.4804 35.9476C18.6338 35.8746 18.7519 35.7436 18.8086 35.5835C18.8654 35.4233 18.8563 35.2472 18.7833 35.0938L16.8921 31.1229ZM8.35045 31.3942L3.85174 25.9504C3.09843 24.891 2.69721 23.6215 2.70478 22.3215L4.42918 11.4439C4.70388 11.5857 4.93186 11.8037 5.08579 12.0718C5.23973 12.3399 5.31308 12.6466 5.29707 12.9554C5.29707 12.9609 5.29659 12.9665 5.29643 12.972L5.17767 17.8328C4.96032 17.89 4.74877 17.9674 4.54577 18.0639C4.39239 18.1369 4.2743 18.2679 4.21749 18.428C4.16068 18.5881 4.1698 18.7643 4.24284 18.9177L7.0776 24.8701C7.11349 24.9465 7.16413 25.0151 7.2266 25.0719C7.28907 25.1287 7.36216 25.1725 7.44164 25.201C7.52113 25.2294 7.60545 25.2419 7.68977 25.2376C7.77408 25.2333 7.85672 25.2125 7.93294 25.1762C8.00916 25.1399 8.07745 25.0889 8.13389 25.0261C8.19032 24.9633 8.2338 24.89 8.26181 24.8103C8.28981 24.7307 8.30181 24.6463 8.29709 24.562C8.29238 24.4777 8.27105 24.3952 8.23433 24.3192L5.71299 19.025C6.21531 18.9406 6.73143 19.0221 7.18329 19.2572C7.63515 19.4923 7.99817 19.8681 8.21744 20.3278L9.94208 23.9491C10.2937 24.6849 10.8062 25.3322 11.4418 25.8431L11.8002 26.1305C12.6347 26.7963 13.2767 27.6726 13.6601 28.669C14.0435 29.6654 14.1545 30.7459 13.9816 31.7994L8.9757 34.1836L9.0589 33.7094C9.06265 33.6885 9.06532 33.6675 9.0669 33.6464C9.12937 32.8311 8.87246 32.0235 8.35045 31.3942ZM9.79401 38.6652L8.45375 35.8511L16.0108 32.252L17.3511 35.0662L9.79401 38.6652ZM20.1434 13.0376C20.3734 13.1224 20.6261 13.1224 20.8561 13.0376C20.8688 13.0333 20.8815 13.0286 20.8939 13.0236C25.9967 10.9562 27.7197 7.14065 27.164 4.27634L27.1631 4.2717C26.7467 2.20568 25.24 0.870777 23.3256 0.870777C22.4187 0.870777 21.4513 1.18797 20.5056 1.79208C19.5483 1.16002 18.5924 0.840027 17.6588 0.840027C15.7322 0.840027 14.2315 2.1899 13.8354 4.2777C13.2801 7.17236 15.0045 10.9998 20.1099 13.0254C20.121 13.0297 20.1321 13.0338 20.1434 13.0376ZM15.094 4.51778C15.3743 3.03961 16.3571 2.12128 17.6588 2.12128C18.4221 2.12128 19.2721 2.45432 20.1166 3.08446C20.2261 3.16616 20.3589 3.21072 20.4955 3.21163C20.6321 3.21253 20.7655 3.16974 20.876 3.0895C21.721 2.47618 22.5679 2.15203 23.3253 2.15203C24.6217 2.15203 25.6106 3.06043 25.9064 4.5229C26.5316 7.75245 23.6547 10.4942 20.4987 11.8009C16.1392 10.0387 14.6407 6.88032 15.094 4.51778Z" fill="#939393"/>
<path d="M27.6003 20.3661C27.6115 20.3705 27.6228 20.3747 27.6343 20.3785C27.8289 20.4485 28.0418 20.4485 28.2364 20.3785C28.2492 20.3742 28.2619 20.3696 28.2744 20.3644C29.8077 19.7432 31.0031 18.8233 31.7313 17.7041C32.3929 16.6871 32.6442 15.5464 32.4396 14.4912L32.4387 14.4866C32.1485 13.0482 31.0933 12.1187 29.7497 12.1187C29.164 12.1187 28.5457 12.3078 27.941 12.6689C27.3294 12.2904 26.7154 12.099 26.1109 12.099C24.7585 12.099 23.7063 13.0391 23.4306 14.4926C23.0562 16.4441 24.2003 19.017 27.6003 20.3661ZM24.6892 14.7326C24.8498 13.8857 25.3813 13.3802 26.1109 13.3802C26.5513 13.3802 27.0497 13.5783 27.5523 13.9532C27.6618 14.0349 27.7945 14.0795 27.9312 14.0804C28.0678 14.0813 28.2011 14.0384 28.3117 13.9582C28.8082 13.5982 29.3185 13.3999 29.7499 13.3999C30.4664 13.3999 31.0151 13.9124 31.1824 14.7372C31.4511 16.1285 30.5467 18.0074 27.9339 19.1182C25.3218 18.0298 24.4188 16.1424 24.6892 14.7326ZM14.8785 12.1186C14.2928 12.1186 13.6745 12.3077 13.0698 12.6688C12.4581 12.2903 11.8442 12.0989 11.2397 12.0989C9.88722 12.0989 8.83507 13.039 8.55944 14.4925C8.185 16.4441 9.32907 19.0169 12.7292 20.3661C12.7403 20.3706 12.7516 20.3746 12.7628 20.3784C12.9574 20.4484 13.1704 20.4484 13.365 20.3784C13.3778 20.3741 13.3906 20.3694 13.4032 20.3643C14.9365 19.743 16.1319 18.8232 16.8601 17.7039C17.5217 16.6869 17.773 15.5462 17.5684 14.491L17.5674 14.4865C17.2775 13.0481 16.2221 12.1186 14.8785 12.1186ZM13.0626 19.1186C10.4505 18.0295 9.54713 16.1424 9.81795 14.7326C9.97859 13.8857 10.5101 13.3802 11.2397 13.3802C11.6801 13.3802 12.1785 13.5783 12.6811 13.9532C12.7906 14.0349 12.9233 14.0795 13.0599 14.0804C13.1966 14.0813 13.3299 14.0384 13.4404 13.9582C13.9364 13.5982 14.4472 13.3999 14.8786 13.3999C15.595 13.3999 16.1438 13.9124 16.3111 14.7372C16.58 16.1288 15.6756 18.0078 13.0629 19.1186H13.0626ZM23.8799 20.214L23.879 20.2093C23.6582 19.1147 22.8178 18.3793 21.7879 18.3793C21.3368 18.3889 20.8955 18.5131 20.5057 18.7403C20.1128 18.5024 19.664 18.373 19.2048 18.3653C18.1674 18.3653 17.3293 19.1093 17.1195 20.2151C16.8392 21.6756 17.6811 23.5957 20.1935 24.5925C20.2047 24.597 20.2162 24.6011 20.2276 24.6049C20.4038 24.6672 20.596 24.6672 20.7722 24.6049C20.785 24.6006 20.7976 24.5959 20.8101 24.5909C23.3203 23.5741 24.1606 21.6599 23.8799 20.214ZM20.4981 23.3322C18.7954 22.5955 18.2027 21.3696 18.3781 20.4554C18.4742 19.9489 18.7832 19.6466 19.2048 19.6466C19.4771 19.6466 19.7924 19.7747 20.1168 20.0165C20.2263 20.0982 20.3591 20.1427 20.4957 20.1436C20.6323 20.1445 20.7656 20.1017 20.8762 20.0215C21.1965 19.7888 21.5206 19.6606 21.7879 19.6606C22.2089 19.6606 22.5207 19.9596 22.6226 20.4605C22.7961 21.3616 22.2016 22.582 20.4981 23.3322Z" fill="#939393"/>
</svg>
