<svg width="25" height="34" viewBox="0 0 25 34" fill="none" xmlns="http://www.w3.org/2000/svg">
<path d="M23.4375 6.90642H1.5625L2.08333 4.78143H22.9167L23.4375 6.90642Z" fill="#E6E6E6"/>
<path d="M22.917 4.78143H21.3545L21.8753 6.90642H23.4378L22.917 4.78143Z" fill="#F2F2F2"/>
<path d="M21.875 2.65649H3.125V4.78148H21.875V2.65649Z" fill="#FAA41A"/>
<path d="M20.8337 2.65648V0.531494L16.667 2.65648H20.8337Z" fill="#E6E6E6"/>
<path d="M22.3962 10.0939L21.7347 17.5314L20.9743 26.0313L20.3128 33.4688H4.68783L4.02637 26.0313L3.26595 17.5314L2.60449 10.0939H22.3962Z" fill="white"/>
<path d="M20.8333 10.0939L20.1719 17.5314L19.4115 26.0313L18.75 33.4688H20.3125L20.974 26.0313L21.7344 17.5314L22.3958 10.0939H20.8333Z" fill="#F2F2F2"/>
<path d="M21.7344 17.5314L20.974 26.0313H4.02604L3.26562 17.5314H10.4167L12.5 19.6564L14.5833 17.5314H21.7344Z" fill="#FAA41A"/>
<path d="M24.4792 6.3752H23.8443L23.4219 4.65237C23.3937 4.53749 23.3286 4.43552 23.2371 4.36266C23.1456 4.2898 23.0328 4.25022 22.9167 4.25022H22.3958V2.65648C22.3958 2.51558 22.341 2.38046 22.2433 2.28083C22.1456 2.1812 22.0131 2.12523 21.875 2.12523H21.3542V0.531494C21.3542 0.440929 21.3316 0.351857 21.2883 0.272738C21.2451 0.193619 21.1828 0.127079 21.1073 0.0794397C21.0318 0.0317999 20.9456 0.00464154 20.8569 0.00054408C20.7682 -0.00355338 20.6799 0.0155461 20.6005 0.0560285L16.5438 2.12523H3.125C2.98687 2.12523 2.85439 2.1812 2.75672 2.28083C2.65904 2.38046 2.60417 2.51558 2.60417 2.65648V4.25022H2.08333C1.96722 4.25022 1.85445 4.2898 1.76291 4.36266C1.67138 4.43552 1.60634 4.53749 1.57812 4.65237L1.15573 6.3752H0.520833C0.3827 6.3752 0.250224 6.43117 0.152549 6.5308C0.0548735 6.63043 0 6.76555 0 6.90645V10.0939C0 10.2348 0.0548735 10.3699 0.152549 10.4696C0.250224 10.5692 0.3827 10.6252 0.520833 10.6252H2.12865L2.7474 17.5728C2.7474 17.5728 2.7474 17.5771 2.7474 17.5797L3.13073 21.8642L4.16667 33.5171C4.17852 33.6494 4.23859 33.7725 4.33501 33.8619C4.43143 33.9513 4.5572 34.0005 4.6875 34H20.3125C20.4428 34.0005 20.5686 33.9513 20.665 33.8619C20.7614 33.7725 20.8215 33.6494 20.8333 33.5171L21.8698 21.8642L22.2531 17.5797C22.2531 17.5771 22.2531 17.5749 22.2531 17.5728L22.8714 10.6252H24.4792C24.6173 10.6252 24.7498 10.5692 24.8475 10.4696C24.9451 10.3699 25 10.2348 25 10.0939V6.90645C25 6.76555 24.9451 6.63043 24.8475 6.5308C24.7498 6.43117 24.6173 6.3752 24.4792 6.3752ZM20.3125 1.39105V2.12523H18.8729L20.3125 1.39105ZM3.64583 3.18772H21.3542V4.25022H3.64583V3.18772ZM2.4901 5.31271H22.5099L22.7703 6.3752H2.22969L2.4901 5.31271ZM20.8333 21.7813L20.5005 25.5001H4.50156L4.16667 21.7813L3.83542 18.0626H10.201L12.1318 20.0319C12.2294 20.1315 12.3619 20.1875 12.5 20.1875C12.6381 20.1875 12.7706 20.1315 12.8682 20.0319L14.799 18.0626H21.1625L20.8333 21.7813ZM19.8385 32.9375H5.16354L4.59479 26.5625H20.4052L19.8385 32.9375ZM21.2594 17.0001H14.5833C14.4452 17.0002 14.3128 17.0561 14.2151 17.1558L12.5 18.9052L10.7849 17.1558C10.6872 17.0561 10.5548 17.0002 10.4167 17.0001H3.74271L3.17708 10.6252H21.8281L21.2594 17.0001ZM23.9583 9.56268H1.04167V7.43769H23.9583V9.56268Z" fill="black"/>
</svg>
