<svg width="29" height="35" viewBox="0 0 29 35" fill="none" xmlns="http://www.w3.org/2000/svg">
<path d="M17.3547 33.9063H6.84219C6.525 33.9063 6.25313 33.6328 6.25313 33.25L3.85156 6.5625C3.85156 6.34375 3.89688 6.125 3.9875 6.01562C4.07813 5.85156 4.25938 5.79688 4.44063 5.79688H19.8016C19.9375 5.79688 20.0734 5.85156 20.2094 6.01562C20.3 6.125 20.3453 6.34375 20.3453 6.50781L17.8531 33.3594C17.8531 33.6875 17.6266 33.9063 17.3547 33.9063ZM7.11406 32.8125H16.9922L19.3484 6.89062H4.75781L7.11406 32.8125Z" fill="black"/>
<path d="M18.6238 19.8516L17.4004 33.25C17.4004 33.3047 17.3551 33.3047 17.3551 33.3047H6.84258C6.75195 33.3047 6.70664 33.25 6.70664 33.1406L5.16602 16.4062C6.84258 15.75 9.24414 15.5859 12.0535 18.1016C14.6816 20.3984 16.9926 20.4531 18.6238 19.8516Z" fill="#FAA41A"/>
<path d="M17.3551 33.9062H6.84258C6.52539 33.9062 6.25352 33.6328 6.25352 33.25L4.71289 16.0781L5.07539 15.914C6.70664 15.2578 9.33477 14.9844 12.3707 17.664C14.4551 19.4687 16.5395 20.0703 18.5332 19.3594L19.1676 19.1406L17.8988 33.3594C17.8535 33.6328 17.627 33.9062 17.3551 33.9062ZM7.11445 32.8125H16.9926L18.1254 20.5625C16.5395 20.8906 14.3191 20.7265 11.827 18.4844C9.33477 16.2969 7.15977 16.2969 5.70977 16.7891L7.11445 32.8125Z" fill="black"/>
<path d="M8.51905 30.6797C8.29249 30.6797 8.11124 30.4609 8.06592 30.1875L8.02061 29.6406C7.9753 29.3672 8.15655 29.0937 8.42842 29.0391C8.65499 29.0391 8.88155 29.2031 8.92686 29.5312L8.97217 30.0781C9.01749 30.3516 8.83624 30.625 8.51905 30.6797C8.56436 30.6797 8.56436 30.6797 8.51905 30.6797ZM8.38311 28.8203C8.15655 28.8203 7.9753 28.6016 7.92999 28.3281L7.70342 25.2109C7.65811 24.9375 7.83936 24.6641 8.11124 24.6094C8.38311 24.6094 8.56436 24.7734 8.60967 25.1016L8.88155 28.2187C8.88155 28.4922 8.7003 28.7656 8.38311 28.8203ZM8.02061 24.3359C7.79405 24.3359 7.6128 24.1172 7.56749 23.8437L7.06905 17.7734C7.02374 17.5 7.20499 17.2266 7.47686 17.1719C7.74874 17.1719 7.92999 17.3359 7.9753 17.6641L8.47374 23.7344C8.51905 24.0625 8.3378 24.3359 8.02061 24.3359ZM7.2503 14.6562C7.02374 14.6562 6.84249 14.4375 6.79717 14.1641L6.66124 12.25C6.61592 11.9766 6.79717 11.7031 7.06905 11.6484C7.34092 11.6484 7.52217 11.8125 7.56749 12.1406L7.70342 14.0547C7.70342 14.3828 7.52217 14.6562 7.2503 14.6562ZM14.9987 32.1562H14.9534C14.7269 32.1016 14.5456 31.8281 14.5456 31.5547L17.4456 2.24219C17.4909 1.96875 17.6722 1.75 17.8987 1.69531L24.6956 1.09375C24.9675 1.09375 25.1487 1.3125 25.194 1.58594C25.2394 1.85938 25.0128 2.1875 24.7409 2.1875L18.3066 2.73438L15.4519 31.6641C15.4065 31.9375 15.2253 32.1562 14.9987 32.1562ZM12.0534 27.5625C12.0534 27.6172 11.9628 27.7813 11.9628 27.6172C11.9628 27.5078 12.0534 27.5078 12.0534 27.6719C12.0987 27.9453 12.4159 27.8359 12.3706 27.5625C12.3253 27.0156 11.6003 27.0156 11.6003 27.6172C11.6003 28.2188 12.3253 28.2187 12.3706 27.6719C12.4159 27.3984 12.0987 27.2891 12.0534 27.5625Z" fill="black"/>
<path d="M16.584 26.4688C16.584 26.5234 16.4934 26.6875 16.4934 26.5234C16.4934 26.4141 16.584 26.4141 16.584 26.5781C16.6293 26.8516 16.9465 26.7422 16.9012 26.4688C16.8559 25.9219 16.1309 25.9219 16.1309 26.5234C16.1309 27.125 16.8559 27.125 16.9012 26.5781C16.9465 26.3047 16.6293 26.1953 16.584 26.4688ZM9.78711 19.9063C9.78711 19.9609 9.69648 20.125 9.69648 19.9609C9.69648 19.8516 9.78711 19.8516 9.78711 20.0156C9.83242 20.2891 10.1496 20.1797 10.1043 19.9063C10.059 19.3594 9.33398 19.3594 9.33398 19.9609C9.33398 20.5625 10.059 20.5625 10.1043 20.0156C10.1496 19.7422 9.83242 19.6328 9.78711 19.9063ZM11.1465 25.1562C11.1012 25.5937 10.6027 25.5937 10.5574 25.1562C10.6027 24.7187 11.1465 24.7187 11.1465 25.1562C11.1465 25.4297 11.509 25.4297 11.509 25.1562C11.4637 24.7734 11.2371 24.3906 10.8746 24.3906C10.5574 24.3906 10.2402 24.7187 10.2402 25.1562C10.2402 25.5391 10.5121 25.8672 10.8293 25.9219C11.1918 25.9219 11.4637 25.5937 11.4637 25.1562C11.509 24.8828 11.1918 24.8828 11.1465 25.1562ZM16.584 31.1719C16.5387 31.6094 16.0402 31.6094 15.9949 31.1719C16.0402 30.7344 16.584 30.7344 16.584 31.1719C16.584 31.4453 16.9465 31.4453 16.9465 31.1719C16.9012 30.7891 16.6746 30.4062 16.3121 30.4062C15.9949 30.4062 15.6777 30.7344 15.6777 31.1719C15.6777 31.5547 15.9496 31.8828 16.2668 31.9375C16.6293 31.9375 16.9012 31.6094 16.9012 31.1719C16.9465 30.8984 16.6293 30.8984 16.584 31.1719ZM13.8652 22.9687C13.8199 23.4062 13.3215 23.4062 13.2762 22.9687C13.3215 22.5312 13.8652 22.5312 13.8652 22.9687C13.8652 23.2422 14.2277 23.2422 14.2277 22.9687C14.1824 22.5859 13.9559 22.2031 13.5934 22.2031C13.2762 22.2031 12.959 22.5312 12.959 22.9687C12.959 23.3516 13.2309 23.6797 13.548 23.7344C13.9105 23.7344 14.1824 23.4062 14.1824 22.9687C14.2277 22.6953 13.9105 22.6953 13.8652 22.9687ZM10.6934 31.1719C10.648 31.6094 10.1496 31.6094 10.1043 31.1719C10.1496 30.7344 10.6934 30.7344 10.6934 31.1719C10.6934 31.4453 11.0559 31.4453 11.0559 31.1719C11.0105 30.7891 10.784 30.4062 10.4215 30.4062C10.1043 30.4062 9.78711 30.7344 9.78711 31.1719C9.78711 31.5547 10.059 31.8828 10.3762 31.9375C10.7387 31.9375 11.0105 31.6094 11.0105 31.1719C11.0559 30.8984 10.7387 30.8984 10.6934 31.1719Z" fill="black"/>
</svg>
