<svg width="37" height="36" viewBox="0 0 37 36" fill="none" xmlns="http://www.w3.org/2000/svg">
<path d="M14.7494 4.82091C15.1619 4.82094 15.5577 4.62218 15.8507 4.26785C16.1438 3.91353 16.3104 3.4323 16.3143 2.9288C16.3184 2.42498 16.1592 1.93961 15.8715 1.57837C15.5838 1.21712 15.1909 1.00925 14.7782 1M14.6142 8.62348C14.2018 8.62351 13.806 8.42475 13.513 8.07042C13.2199 7.7161 13.0533 7.23487 13.0493 6.73137C13.0453 6.22755 13.2045 5.74218 13.4922 5.38094C13.7799 5.01969 14.1728 4.81182 14.5854 4.80257M14.7494 12.4444C15.1619 12.4444 15.5577 12.2457 15.8507 11.8913C16.1438 11.537 16.3104 11.0558 16.3143 10.5523C16.3184 10.0485 16.1592 9.5631 15.8715 9.20185C15.5838 8.8406 15.1909 8.63273 14.7782 8.62348M21.0091 4.82091C21.4215 4.82094 21.8173 4.62218 22.1103 4.26785C22.4034 3.91353 22.57 3.4323 22.574 2.9288C22.578 2.42498 22.4188 1.93961 22.1311 1.57837C21.8434 1.21712 21.4505 1.00925 21.0379 1M20.8738 8.62348C20.4614 8.62351 20.0656 8.42475 19.7726 8.07042C19.4795 7.7161 19.3129 7.23487 19.3089 6.73137C19.3049 6.22755 19.4641 5.74218 19.7518 5.38094C20.0395 5.01969 20.4324 4.81182 20.8451 4.80257M21.0091 12.4444C21.4215 12.4444 21.8173 12.2457 22.1103 11.8913C22.4034 11.537 22.57 11.0558 22.574 10.5523C22.578 10.0485 22.4188 9.5631 22.1311 9.20185C21.8434 8.8406 21.4505 8.63273 21.0379 8.62348M8.97432 4.82091C9.38677 4.82094 9.78255 4.62218 10.0756 4.26785C10.3686 3.91353 10.5353 3.4323 10.5392 2.9288C10.5433 2.42524 10.3843 1.9401 10.0968 1.5789C9.80942 1.21769 9.41679 1.00964 9.00437 1M8.84037 8.62348C8.42792 8.62351 8.03214 8.42475 7.73909 8.07042C7.44604 7.7161 7.27943 7.23487 7.27547 6.73137C7.27143 6.22781 7.43042 5.74267 7.71785 5.38147C8.00528 5.02027 8.3979 4.81222 8.81032 4.80257M8.97432 12.4444C9.38677 12.4444 9.78255 12.2457 10.0756 11.8913C10.3686 11.537 10.5353 11.0558 10.5392 10.5523C10.5433 10.0487 10.3843 9.56358 10.0968 9.20238C9.80942 8.84118 9.41679 8.63313 9.00437 8.62348" fill="#FAA41A"/>
<path d="M14.7494 4.82091C15.1619 4.82094 15.5577 4.62218 15.8507 4.26785C16.1438 3.91353 16.3104 3.4323 16.3143 2.9288C16.3184 2.42498 16.1592 1.93961 15.8715 1.57837C15.5838 1.21712 15.1909 1.00925 14.7782 1M14.6142 8.62348C14.2018 8.62351 13.806 8.42475 13.513 8.07042C13.2199 7.7161 13.0533 7.23487 13.0493 6.73137C13.0453 6.22755 13.2045 5.74218 13.4922 5.38094C13.7799 5.01969 14.1728 4.81182 14.5854 4.80257M14.7494 12.4444C15.1619 12.4444 15.5577 12.2457 15.8507 11.8913C16.1438 11.537 16.3104 11.0558 16.3143 10.5523C16.3184 10.0485 16.1592 9.5631 15.8715 9.20185C15.5838 8.8406 15.1909 8.63273 14.7782 8.62348M21.0091 4.82091C21.4215 4.82094 21.8173 4.62218 22.1103 4.26785C22.4034 3.91353 22.57 3.4323 22.574 2.9288C22.578 2.42498 22.4188 1.93961 22.1311 1.57837C21.8434 1.21712 21.4505 1.00925 21.0379 1M20.8738 8.62348C20.4614 8.62351 20.0656 8.42475 19.7726 8.07042C19.4795 7.7161 19.3129 7.23487 19.3089 6.73137C19.3049 6.22755 19.4641 5.74218 19.7518 5.38094C20.0395 5.01969 20.4324 4.81182 20.8451 4.80257M21.0091 12.4444C21.4215 12.4444 21.8173 12.2457 22.1103 11.8913C22.4034 11.537 22.57 11.0558 22.574 10.5523C22.578 10.0485 22.4188 9.5631 22.1311 9.20185C21.8434 8.8406 21.4505 8.63273 21.0379 8.62348M8.97432 4.82091C9.38677 4.82094 9.78255 4.62218 10.0756 4.26785C10.3686 3.91353 10.5353 3.4323 10.5392 2.9288C10.5433 2.42524 10.3843 1.9401 10.0968 1.5789C9.80942 1.21769 9.41679 1.00964 9.00437 1M8.84037 8.62348C8.42792 8.62351 8.03214 8.42475 7.73909 8.07042C7.44604 7.7161 7.27943 7.23487 7.27547 6.73137C7.27143 6.22781 7.43042 5.74267 7.71785 5.38147C8.00528 5.02027 8.3979 4.81222 8.81032 4.80257M8.97432 12.4444C9.38677 12.4444 9.78255 12.2457 10.0756 11.8913C10.3686 11.537 10.5353 11.0558 10.5392 10.5523C10.5433 10.0487 10.3843 9.56358 10.0968 9.20238C9.80942 8.84118 9.41679 8.63313 9.00437 8.62348" stroke="#FAA41A" stroke-linecap="round" stroke-linejoin="round"/>
<path d="M9.58398 35H20.8488V30.4516C18.4488 31.7446 17.0505 31.9463 15.105 31.9952C12.6725 32.0564 11.0237 31.5429 9.58398 31.1027V35Z" fill="#FAA41A" stroke="#383747" stroke-linecap="round" stroke-linejoin="round"/>
<path d="M29.3952 18.5334C27.2919 28.1223 19.2533 33.8124 11.3988 31.2433C8.90611 30.4308 6.63302 28.8302 4.8087 26.6031C2.98438 24.3759 1.67335 21.6009 1.00781 18.5578L29.3952 18.5334Z" fill="#FAA41A" stroke="#383747" stroke-linecap="round" stroke-linejoin="round"/>
<path d="M1 15.469H29.3999V18.6159H1V15.469Z" fill="#FAA41A" stroke="#383747" stroke-linecap="round" stroke-linejoin="round"/>
<path d="M19.3447 15.4598C29.1097 15.9306 26.6547 7.43593 33.872 6.66869C34.5856 6.59227 34.9612 6.57546 35.9627 6.65341L36.0003 6.63812C34.7546 5.73333 32.4586 4.20191 30.5419 4.85146C29.5617 5.18465 28.0343 6.47153 27.0115 8.92455C24.4363 15.8083 21.9287 15.4461 19.8881 15.4583L19.3447 15.4598Z" fill="#FAA41A" stroke="#383747" stroke-linecap="round" stroke-linejoin="round"/>
<path d="M25.3538 21.234C24.4674 24.5353 22.095 26.8278 19.3408 27.4514L25.3538 21.234Z" fill="#FAA41A"/>
<path d="M25.3538 21.234C24.4674 24.5353 22.095 26.8278 19.3408 27.4514" stroke="white" stroke-linecap="round" stroke-linejoin="round"/>
</svg>
