<svg width="39" height="43" viewBox="0 0 39 43" fill="none" xmlns="http://www.w3.org/2000/svg">
<path d="M28.3502 9.6226C28.6178 9.27782 28.813 8.87212 28.9218 8.43449C29.0307 7.99686 29.0504 7.53812 28.9798 7.09108C28.9091 6.64404 28.7496 6.21975 28.5129 5.84855C28.2762 5.47735 27.968 5.16842 27.6103 4.94384C27.2527 4.71927 26.8545 4.5846 26.4441 4.54947C26.0338 4.51434 25.6215 4.57962 25.2367 4.74063C24.8519 4.90165 24.5042 5.15442 24.2183 5.48088C23.9324 5.80734 23.7155 6.19941 23.5831 6.62906C22.8859 6.16605 22.0769 5.94944 21.2648 6.00835C20.4526 6.06727 19.6763 6.39888 19.0402 6.95861C18.8108 6.22688 18.3733 5.59635 17.7927 5.16086C17.2122 4.72536 16.5196 4.50818 15.818 4.54163C15.1165 4.57507 14.4435 4.85736 13.8992 5.34648C13.3549 5.8356 12.9684 6.50542 12.7972 7.25625C12.4426 7.14668 12.0696 7.13044 11.7083 7.20882C11.3471 7.28721 11.0075 7.45804 10.717 7.70755C10.4265 7.95706 10.1933 8.27829 10.036 8.64538C9.87865 9.01246 9.80172 9.41514 9.81135 9.82099C9.82099 10.2268 9.91692 10.6245 10.0914 10.982C10.2659 11.3395 10.5141 11.6469 10.8161 11.8793C11.118 12.1117 11.4652 12.2627 11.8297 12.3202C12.1942 12.3776 12.5659 12.3399 12.9148 12.21C12.9148 12.2557 12.9087 12.3 12.9087 12.3444C12.9079 13.3038 13.1923 14.237 13.7182 15.0014C14.2441 15.7657 14.9826 16.3191 15.8208 16.5768C16.659 16.8345 17.5507 16.7824 18.3594 16.4284C19.1682 16.0744 19.8495 15.438 20.2992 14.6166C20.9081 14.8338 21.5554 14.8861 22.1865 14.7692C22.8176 14.6522 23.4139 14.3694 23.9249 13.9448C24.1755 14.2904 24.4872 14.5762 24.841 14.7849C25.1949 14.9935 25.5835 15.1207 25.9834 15.1586C26.3832 15.1965 26.7858 15.1444 27.1668 15.0054C27.5477 14.8664 27.8991 14.6434 28.1995 14.35C28.4999 14.0566 28.743 13.699 28.9141 13.2987C29.0852 12.8985 29.1807 12.4641 29.1948 12.022C29.2089 11.5798 29.1413 11.1391 28.9961 10.7266C28.8509 10.3141 28.6312 9.93851 28.3502 9.6226Z" fill="white"/>
<path d="M22.8779 10.1725C23.2664 12.0041 25.8099 14.0694 27.9037 14.5797C28.2584 14.3111 28.5557 13.9604 28.7747 13.552C28.9937 13.1436 29.1292 12.6875 29.1717 12.2153C29.2142 11.7432 29.1627 11.2666 29.0208 10.8187C28.8789 10.3708 28.65 9.96248 28.3501 9.62227C28.6177 9.27749 28.813 8.87177 28.9218 8.43411C29.0307 7.99645 29.0505 7.53768 28.9798 7.0906C28.9091 6.64352 28.7497 6.2192 28.5129 5.84797C28.2761 5.47674 27.9679 5.16779 27.6102 4.94322C27.2526 4.71864 26.8543 4.58399 26.4439 4.5489C26.0336 4.5138 25.6212 4.57913 25.2364 4.74021C24.8516 4.90129 24.5039 5.15414 24.218 5.48067C23.9322 5.80721 23.7153 6.19935 23.5829 6.62906C22.8858 6.16605 22.0767 5.94944 21.2646 6.00836C20.4525 6.06727 19.6762 6.39888 19.04 6.95862C19.04 6.95862 22.2569 7.24383 22.8779 10.1725Z" fill="white"/>
<path d="M22.8778 10.1725C22.8778 11.1603 22.5219 12.1076 21.8884 12.8061C21.2549 13.5045 20.3957 13.8969 19.4998 13.8969C18.604 13.8969 17.7448 13.5045 17.1113 12.8061C16.4778 12.1076 16.1219 11.1603 16.1219 10.1725H8.37891L10.6732 36.7956C10.7124 37.2501 10.9039 37.6722 11.2102 37.9793C11.5165 38.2865 11.9157 38.4568 12.3298 38.4568H26.6702C27.0843 38.4568 27.4835 38.2865 27.7898 37.9793C28.0961 37.6722 28.2876 37.2501 28.3268 36.7956L30.6211 10.1725H22.8778Z" fill="#FECB5B"/>
<path d="M30.6211 20.1307H22.2379C21.5524 18.781 20.581 17.933 19.5 17.933C18.419 17.933 17.4476 18.781 16.7621 20.1307H8.37891L8.98828 29.621H16.7621C17.4476 30.9708 18.419 31.8187 19.5 31.8187C20.581 31.8187 21.5524 30.9708 22.2379 29.621H30.0117L30.6211 20.1307Z" fill="white"/>
<path d="M20.7699 14.8931C17.6722 16.9088 16.7109 18.4816 16.7624 20.1307C16.9104 24.8577 23.8336 24.6404 22.2382 29.621C20.6429 34.6016 17.2718 37.3573 12.3301 38.4561H26.6705C27.0846 38.4561 27.4838 38.2859 27.7901 37.9787C28.0964 37.6715 28.2879 37.2494 28.3271 36.7949L30.6214 10.1719H22.8781C22.8781 10.1719 23.8674 12.8775 20.7699 14.8931Z" fill="#FAA41A"/>
<path d="M22.2376 29.621H30.0114L30.6207 20.1307H22.2376C21.552 18.781 20.5807 17.933 19.4996 17.933C18.4186 17.933 17.4473 18.781 16.7617 20.1307C16.9098 24.8577 23.8329 24.6404 22.2376 29.621Z" fill="#F2F2F2"/>
<path d="M28.7739 31.6067C28.6332 31.5924 28.493 31.6401 28.3841 31.7393C28.2751 31.8386 28.2063 31.9814 28.1926 32.1365L27.7965 36.7388C27.7707 37.0481 27.6408 37.3355 27.4324 37.5444C27.2241 37.7534 26.9523 37.8688 26.6706 37.8679H12.3299C12.0482 37.8688 11.7765 37.7534 11.5681 37.5444C11.3598 37.3355 11.2299 37.0481 11.2041 36.7388L10.6413 30.2089H14.8536C14.9951 30.2089 15.1307 30.1469 15.2307 30.0367C15.3307 29.9264 15.3868 29.7769 15.3868 29.621C15.3868 29.4651 15.3307 29.3155 15.2307 29.2053C15.1307 29.095 14.9951 29.0331 14.8536 29.0331H9.48504L8.95123 20.7186H16.7622C16.8571 20.7185 16.9503 20.6904 17.0321 20.6372C17.1139 20.5841 17.1813 20.5078 17.2275 20.4163C17.8399 19.211 18.6683 18.5196 19.5001 18.5196C20.3319 18.5196 21.1604 19.211 21.7728 20.4163C21.8189 20.5078 21.8863 20.5841 21.9681 20.6372C22.0499 20.6904 22.1431 20.7185 22.238 20.7186H23.5628C23.7042 20.7186 23.8399 20.6567 23.9399 20.5464C24.0399 20.4362 24.096 20.2867 24.096 20.1307C24.096 19.9748 24.0399 19.8253 23.9399 19.715C23.8399 19.6048 23.7042 19.5429 23.5628 19.5429H22.5415C21.7451 18.1407 20.6494 17.3452 19.5001 17.3452C18.3508 17.3452 17.2552 18.1407 16.4587 19.5429H8.37903C8.30581 19.5428 8.23338 19.5594 8.16624 19.5916C8.0991 19.6238 8.0387 19.6709 7.98879 19.73C7.93888 19.7891 7.90054 19.8588 7.87615 19.9349C7.85176 20.011 7.84186 20.0919 7.84704 20.1724L8.45642 29.6626C8.46598 29.811 8.52618 29.9498 8.6249 30.0512C8.72361 30.1526 8.85351 30.2089 8.9884 30.2089H9.57005L10.1426 36.8524C10.1922 37.4534 10.4444 38.0121 10.8494 38.4182C11.2543 38.8243 11.7825 39.0483 12.3299 39.046H26.6703C27.2177 39.0483 27.746 38.8243 28.1509 38.4182C28.5558 38.0121 28.808 37.4534 28.8577 36.8524L29.2538 32.25C29.2607 32.173 29.2538 32.0953 29.2334 32.0212C29.213 31.9472 29.1796 31.8783 29.135 31.8185C29.0904 31.7587 29.0356 31.7093 28.9736 31.6729C28.9116 31.6366 28.8438 31.6141 28.7739 31.6067ZM25.9238 20.7186C26.0653 20.7186 26.2009 20.6567 26.3009 20.5464C26.4009 20.4362 26.4571 20.2867 26.4571 20.1307C26.4571 19.9748 26.4009 19.8253 26.3009 19.715C26.2009 19.6048 26.0653 19.5429 25.9238 19.5429H25.5939C25.4525 19.5429 25.3168 19.6048 25.2168 19.715C25.1168 19.8253 25.0607 19.9748 25.0607 20.1307C25.0607 20.2867 25.1168 20.4362 25.2168 20.5464C25.3168 20.6567 25.4525 20.7186 25.5939 20.7186H25.9238Z" fill="#630000"/>
<path d="M31.011 19.73C30.9612 19.6709 30.9008 19.6238 30.8337 19.5917C30.7666 19.5595 30.6942 19.5428 30.621 19.5429H30.3493L31.1518 10.2283C31.1588 10.1468 31.1503 10.0646 31.1268 9.98687C31.1033 9.90919 31.0654 9.83777 31.0154 9.77718C30.9654 9.71659 30.9046 9.66817 30.8366 9.63502C30.7687 9.60187 30.6953 9.58472 30.621 9.58466H29.0348C29.2722 9.17103 29.4322 8.70917 29.5051 8.22632C29.5781 7.74347 29.5626 7.24939 29.4597 6.77323C29.3567 6.29707 29.1684 5.84845 28.9057 5.45383C28.643 5.0592 28.3113 4.72656 27.9301 4.47551C27.549 4.22447 27.1261 4.06009 26.6865 3.99209C26.2468 3.92408 25.7992 3.95382 25.3701 4.07954C24.9411 4.20526 24.5392 4.42443 24.1881 4.72412C23.8371 5.02382 23.544 5.39796 23.3262 5.82451C22.5735 5.46354 21.7458 5.33554 20.9321 5.45427C20.1184 5.573 19.3494 5.93398 18.7077 6.4984C18.6515 6.54588 18.6044 6.60525 18.5692 6.67304C18.5339 6.74082 18.5113 6.81566 18.5026 6.89319C18.494 6.97072 18.4994 7.04938 18.5186 7.12458C18.5378 7.19977 18.5704 7.26999 18.6145 7.33114C18.6586 7.39228 18.7133 7.44312 18.7754 7.48069C18.8375 7.51825 18.9058 7.54179 18.9763 7.54993C19.0468 7.55807 19.118 7.55064 19.1858 7.52808C19.2537 7.50552 19.3167 7.46828 19.3714 7.41853C19.9226 6.93335 20.5953 6.6459 21.2992 6.59485C22.003 6.54381 22.7041 6.7316 23.3082 7.13299C23.3764 7.17806 23.4529 7.20576 23.532 7.21406C23.6111 7.22235 23.691 7.21102 23.7656 7.18091C23.8403 7.1508 23.9079 7.10266 23.9635 7.04002C24.0191 6.97738 24.0613 6.90183 24.087 6.81889C24.1943 6.47152 24.3699 6.15457 24.6012 5.89069C24.8325 5.62682 25.1138 5.42252 25.425 5.2924C25.7362 5.16228 26.0697 5.10955 26.4015 5.13797C26.7333 5.1664 27.0554 5.27528 27.3446 5.45684C27.6339 5.63839 27.8832 5.88814 28.0748 6.18824C28.2663 6.48835 28.3954 6.83139 28.4528 7.19287C28.5102 7.55434 28.4944 7.92533 28.4067 8.27933C28.319 8.63332 28.1614 8.96158 27.9453 9.24066C27.871 9.33739 27.8274 9.45815 27.821 9.58466H22.8777C22.7366 9.58466 22.6012 9.64637 22.5012 9.75625C22.4013 9.86614 22.3449 10.0152 22.3445 10.1709C22.3445 11.0027 22.0448 11.8005 21.5113 12.3887C20.9778 12.9769 20.2542 13.3074 19.4998 13.3074C18.7453 13.3074 18.0218 12.9769 17.4883 12.3887C16.9548 11.8005 16.6551 11.0027 16.6551 10.1709C16.6547 10.0152 16.5983 9.86614 16.4984 9.75625C16.3984 9.64637 16.263 9.58466 16.1219 9.58466H10.3569C10.3796 9.29114 10.4607 9.00674 10.5944 8.75167C10.7281 8.4966 10.9111 8.27711 11.1304 8.10879C11.3497 7.94048 11.5999 7.82747 11.8632 7.77778C12.1266 7.7281 12.3967 7.74297 12.6542 7.82132C12.7227 7.84247 12.7943 7.8483 12.8648 7.83847C12.9354 7.82864 13.0034 7.80336 13.065 7.76411C13.1265 7.72486 13.1803 7.67243 13.2232 7.60991C13.2661 7.54739 13.2973 7.47604 13.3148 7.40006C13.4637 6.75131 13.8046 6.17586 14.2836 5.76483C14.7626 5.3538 15.3522 5.13068 15.9592 5.1308C16.1006 5.1308 16.2362 5.06886 16.3362 4.95861C16.4362 4.84836 16.4924 4.69883 16.4924 4.54291C16.4924 4.38699 16.4362 4.23746 16.3362 4.12721C16.2362 4.01696 16.1006 3.95502 15.9592 3.95502C15.2006 3.95436 14.4592 4.20456 13.831 4.67329C13.2027 5.14202 12.7164 5.80774 12.4348 6.5844C12.3451 6.57477 12.2557 6.56996 12.1667 6.56996C11.4284 6.57123 10.7185 6.88443 10.1833 7.44513C9.64796 8.00583 9.32791 8.77139 9.28894 9.58432H8.37884C8.30457 9.58438 8.23113 9.60153 8.16322 9.63468C8.09531 9.66784 8.03443 9.71626 7.98447 9.77684C7.9345 9.83743 7.89657 9.90885 7.87308 9.98654C7.8496 10.0642 7.84108 10.1465 7.84808 10.228L8.51687 17.9881C8.52261 18.0657 8.54227 18.1413 8.57472 18.2105C8.60717 18.2796 8.65175 18.341 8.70589 18.391C8.76002 18.441 8.82262 18.4786 8.89006 18.5018C8.9575 18.5249 9.02843 18.533 9.09874 18.5256C9.16904 18.5182 9.23732 18.4956 9.2996 18.4589C9.36189 18.4222 9.41694 18.3722 9.46156 18.3118C9.50619 18.2515 9.5395 18.182 9.55955 18.1073C9.57961 18.0327 9.58601 17.9543 9.5784 17.8769L8.96506 10.7608H15.6264C15.7573 11.7909 16.2213 12.7341 16.9331 13.4167C17.645 14.0993 18.5566 14.4753 19.4999 14.4753C20.4433 14.4753 21.3549 14.0993 22.0667 13.4167C22.7785 12.7341 23.2426 11.7909 23.3734 10.7608H30.0348L29.278 19.5429H27.7774C27.636 19.5429 27.5003 19.6048 27.4004 19.715C27.3004 19.8253 27.2442 19.9748 27.2442 20.1307C27.2442 20.2867 27.3004 20.4362 27.4004 20.5464C27.5003 20.6567 27.636 20.7186 27.7774 20.7186H30.0488L29.515 29.0331H22.2379C22.1429 29.0333 22.0497 29.0614 21.9679 29.1145C21.8862 29.1677 21.8187 29.2439 21.7726 29.3354C21.1602 30.5411 20.3317 31.2325 19.4999 31.2325C18.6681 31.2325 17.8397 30.5411 17.2273 29.3354C17.1582 29.1994 17.0429 29.0992 16.9068 29.0568C16.7707 29.0145 16.6249 29.0335 16.5015 29.1097C16.3781 29.1859 16.2872 29.313 16.2488 29.463C16.2104 29.6131 16.2277 29.7738 16.2968 29.9099C17.1033 31.4979 18.2708 32.4083 19.4999 32.4083C20.6492 32.4083 21.7446 31.6121 22.5413 30.2106H30.0117C30.1466 30.2106 30.2764 30.1542 30.3752 30.0529C30.4739 29.9515 30.5341 29.8127 30.5436 29.6643L31.153 20.1741C31.1584 20.0933 31.1485 20.0121 31.1241 19.9357C31.0997 19.8592 31.0612 19.7892 31.011 19.73Z" fill="#630000"/>
<path d="M17.5375 5.68745C17.6125 5.74657 17.6845 5.80962 17.7535 5.87658C17.8599 5.9794 17.9989 6.03143 18.1401 6.02122C18.2812 6.01101 18.4129 5.93941 18.5061 5.82216C18.5994 5.70491 18.6466 5.55162 18.6373 5.396C18.6281 5.24039 18.5631 5.09521 18.4568 4.99239C18.3613 4.90012 18.2617 4.81311 18.1579 4.73137C18.0428 4.64439 17.9013 4.61063 17.7639 4.63735C17.6264 4.66406 17.504 4.74912 17.4228 4.87426C17.3416 4.9994 17.3081 5.15464 17.3296 5.30668C17.351 5.45871 17.4257 5.59542 17.5375 5.68745Z" fill="#630000"/>
</svg>
